<?xml version="1.0" standalone="no"?>
<!DOCTYPE svg PUBLIC "-//W3C//DTD SVG 20010904//EN"
 "http://www.w3.org/TR/2001/REC-SVG-20010904/DTD/svg10.dtd">
<svg version="1.0" xmlns="http://www.w3.org/2000/svg"
 width="512.000000pt" height="512.000000pt" viewBox="0 0 512.000000 512.000000"
 preserveAspectRatio="xMidYMid meet">
<metadata>
Created by potrace 1.11, written by Peter Selinger 2001-2013
</metadata>
<g transform="translate(0.000000,512.000000) scale(0.100000,-0.100000)"
fill="#000000" stroke="none">
<path d="M2310 4359 c-466 -45 -848 -258 -1078 -602 -89 -133 -139 -237 -191
-392 -40 -118 -87 -358 -74 -378 3 -5 7 -125 8 -266 1 -141 5 -275 10 -298 6
-35 5 -43 -7 -43 -17 0 -15 -77 8 -315 22 -227 64 -415 115 -517 15 -28 19
-59 19 -131 0 -186 34 -260 119 -262 40 0 40 0 51 -49 6 -28 22 -64 35 -82 45
-59 174 -104 295 -104 72 0 89 6 101 36 8 22 14 24 75 24 73 0 114 17 136 58
19 37 19 1387 0 1424 -22 40 -63 58 -132 58 -57 0 -65 3 -91 31 l-30 32 -82
-6 c-191 -14 -294 -80 -314 -200 -4 -30 -8 -32 -44 -32 -76 -1 -117 -73 -120
-214 -1 -25 -10 21 -20 103 -11 83 -23 152 -28 155 -17 11 -22 156 -12 303 31
430 162 747 403 974 193 183 431 289 762 341 155 24 517 24 672 0 191 -30 308
-65 460 -137 127 -60 206 -113 302 -204 212 -200 336 -465 388 -826 18 -124
21 -439 5 -450 -6 -3 -20 -80 -31 -170 -11 -90 -23 -166 -25 -169 -3 -2 -5 43
-5 100 0 86 -4 110 -20 136 -23 38 -73 67 -106 60 -20 -4 -24 1 -30 32 -21
118 -119 182 -301 198 -80 7 -128 -7 -138 -38 -5 -16 -16 -19 -77 -19 -77 0
-117 -17 -140 -58 -19 -37 -19 -1387 0 -1424 23 -41 63 -58 141 -58 41 0 71
-4 71 -10 0 -5 9 -19 20 -30 16 -16 33 -20 85 -20 169 0 310 69 329 163 3 15
8 37 11 50 4 19 10 23 32 20 37 -5 72 15 100 56 21 31 23 45 23 163 0 119 2
133 24 171 53 91 105 332 125 587 19 223 19 250 3 250 -12 0 -13 10 -7 53 7
45 17 465 15 597 -2 129 -79 391 -161 554 -233 461 -636 723 -1194 776 -125
11 -359 11 -485 -1z"/>
</g>
</svg>
